<mxfile host="app.diagrams.net" modified="2023-11-12T19:18:34.172Z" agent="Mozilla/5.0 (Macintosh; Intel Mac OS X 10_15_7) AppleWebKit/537.36 (KHTML, like Gecko) Chrome/119.0.0.0 Safari/537.36" etag="XoShQF1CdOlQvU5emQ1G" version="22.1.0" type="device">
  <diagram name="Page-1" id="bMbw8qEkQfppF0T7f18Z">
    <mxGraphModel dx="3615" dy="3675" grid="1" gridSize="10" guides="1" tooltips="1" connect="1" arrows="1" fold="1" page="1" pageScale="1" pageWidth="850" pageHeight="1100" math="0" shadow="0">
      <root>
        <mxCell id="0" />
        <mxCell id="1" parent="0" />
        <mxCell id="7KmP2yAa2ebhud8jWFEG-11" value="AWS Cloud" style="points=[[0,0],[0.25,0],[0.5,0],[0.75,0],[1,0],[1,0.25],[1,0.5],[1,0.75],[1,1],[0.75,1],[0.5,1],[0.25,1],[0,1],[0,0.75],[0,0.5],[0,0.25]];outlineConnect=0;gradientColor=none;html=1;whiteSpace=wrap;fontSize=12;fontStyle=0;container=1;pointerEvents=0;collapsible=0;recursiveResize=0;shape=mxgraph.aws4.group;grIcon=mxgraph.aws4.group_aws_cloud;strokeColor=#232F3E;fillColor=none;verticalAlign=top;align=left;spacingLeft=30;fontColor=#232F3E;dashed=0;" parent="1" vertex="1">
          <mxGeometry x="40" y="-1720" width="1120" height="1470" as="geometry" />
        </mxCell>
        <mxCell id="7KmP2yAa2ebhud8jWFEG-12" value="VPC1 - 10.10.0.0/16" style="points=[[0,0],[0.25,0],[0.5,0],[0.75,0],[1,0],[1,0.25],[1,0.5],[1,0.75],[1,1],[0.75,1],[0.5,1],[0.25,1],[0,1],[0,0.75],[0,0.5],[0,0.25]];outlineConnect=0;gradientColor=none;html=1;whiteSpace=wrap;fontSize=12;fontStyle=0;container=1;pointerEvents=0;collapsible=0;recursiveResize=0;shape=mxgraph.aws4.group;grIcon=mxgraph.aws4.group_vpc;strokeColor=#248814;fillColor=none;verticalAlign=top;align=left;spacingLeft=30;fontColor=#AAB7B8;dashed=0;" parent="7KmP2yAa2ebhud8jWFEG-11" vertex="1">
          <mxGeometry x="40" y="40" width="848" height="530" as="geometry" />
        </mxCell>
        <mxCell id="7KmP2yAa2ebhud8jWFEG-17" value="Availability zone&lt;br&gt;ap-southeast-1a" style="sketch=0;outlineConnect=0;gradientColor=none;html=1;whiteSpace=wrap;fontSize=12;fontStyle=0;shape=mxgraph.aws4.group;grIcon=mxgraph.aws4.group_availability_zone;strokeColor=#545B64;fillColor=none;verticalAlign=top;align=left;spacingLeft=30;fontColor=#545B64;dashed=1;" parent="7KmP2yAa2ebhud8jWFEG-12" vertex="1">
          <mxGeometry x="20" y="40" width="200" height="360" as="geometry" />
        </mxCell>
        <mxCell id="7KmP2yAa2ebhud8jWFEG-19" value="Availability zone&lt;br&gt;ap-southeast-1c" style="sketch=0;outlineConnect=0;gradientColor=none;html=1;whiteSpace=wrap;fontSize=12;fontStyle=0;shape=mxgraph.aws4.group;grIcon=mxgraph.aws4.group_availability_zone;strokeColor=#545B64;fillColor=none;verticalAlign=top;align=left;spacingLeft=30;fontColor=#545B64;dashed=1;" parent="7KmP2yAa2ebhud8jWFEG-12" vertex="1">
          <mxGeometry x="520" y="40" width="200" height="200" as="geometry" />
        </mxCell>
        <mxCell id="7KmP2yAa2ebhud8jWFEG-18" value="Availability zone&lt;br&gt;ap-southeast-1b" style="sketch=0;outlineConnect=0;gradientColor=none;html=1;whiteSpace=wrap;fontSize=12;fontStyle=0;shape=mxgraph.aws4.group;grIcon=mxgraph.aws4.group_availability_zone;strokeColor=#545B64;fillColor=none;verticalAlign=top;align=left;spacingLeft=30;fontColor=#545B64;dashed=1;" parent="7KmP2yAa2ebhud8jWFEG-12" vertex="1">
          <mxGeometry x="285" y="40" width="215" height="360" as="geometry" />
        </mxCell>
        <mxCell id="7KmP2yAa2ebhud8jWFEG-20" value="Public subnet&lt;br&gt;10.10.1.0/24" style="points=[[0,0],[0.25,0],[0.5,0],[0.75,0],[1,0],[1,0.25],[1,0.5],[1,0.75],[1,1],[0.75,1],[0.5,1],[0.25,1],[0,1],[0,0.75],[0,0.5],[0,0.25]];outlineConnect=0;gradientColor=none;html=1;whiteSpace=wrap;fontSize=12;fontStyle=0;container=1;pointerEvents=0;collapsible=0;recursiveResize=0;shape=mxgraph.aws4.group;grIcon=mxgraph.aws4.group_security_group;grStroke=0;strokeColor=#248814;fillColor=#E9F3E6;verticalAlign=top;align=left;spacingLeft=30;fontColor=#248814;dashed=0;" parent="7KmP2yAa2ebhud8jWFEG-12" vertex="1">
          <mxGeometry x="40" y="90" width="150" height="130" as="geometry" />
        </mxCell>
        <mxCell id="7KmP2yAa2ebhud8jWFEG-23" value="EC2" style="points=[[0,0],[0.25,0],[0.5,0],[0.75,0],[1,0],[1,0.25],[1,0.5],[1,0.75],[1,1],[0.75,1],[0.5,1],[0.25,1],[0,1],[0,0.75],[0,0.5],[0,0.25]];outlineConnect=0;gradientColor=none;html=1;whiteSpace=wrap;fontSize=12;fontStyle=0;container=1;pointerEvents=0;collapsible=0;recursiveResize=0;shape=mxgraph.aws4.group;grIcon=mxgraph.aws4.group_ec2_instance_contents;strokeColor=#D86613;fillColor=none;verticalAlign=top;align=left;spacingLeft=30;fontColor=#D86613;dashed=0;" parent="7KmP2yAa2ebhud8jWFEG-20" vertex="1">
          <mxGeometry x="10" y="60" width="60" height="60" as="geometry" />
        </mxCell>
        <mxCell id="7KmP2yAa2ebhud8jWFEG-21" value="Public subnet&lt;br&gt;10.10.2.0/24" style="points=[[0,0],[0.25,0],[0.5,0],[0.75,0],[1,0],[1,0.25],[1,0.5],[1,0.75],[1,1],[0.75,1],[0.5,1],[0.25,1],[0,1],[0,0.75],[0,0.5],[0,0.25]];outlineConnect=0;gradientColor=none;html=1;whiteSpace=wrap;fontSize=12;fontStyle=0;container=1;pointerEvents=0;collapsible=0;recursiveResize=0;shape=mxgraph.aws4.group;grIcon=mxgraph.aws4.group_security_group;grStroke=0;strokeColor=#248814;fillColor=#E9F3E6;verticalAlign=top;align=left;spacingLeft=30;fontColor=#248814;dashed=0;" parent="7KmP2yAa2ebhud8jWFEG-12" vertex="1">
          <mxGeometry x="330" y="90" width="130" height="130" as="geometry" />
        </mxCell>
        <mxCell id="7KmP2yAa2ebhud8jWFEG-80" value="" style="endArrow=none;dashed=1;html=1;rounded=0;" parent="7KmP2yAa2ebhud8jWFEG-21" source="7KmP2yAa2ebhud8jWFEG-63" edge="1">
          <mxGeometry width="50" height="50" relative="1" as="geometry">
            <mxPoint x="64" y="381" as="sourcePoint" />
            <mxPoint x="60" y="120" as="targetPoint" />
            <Array as="points">
              <mxPoint x="-90" y="190" />
            </Array>
          </mxGeometry>
        </mxCell>
        <mxCell id="7KmP2yAa2ebhud8jWFEG-22" value="Public subnet&lt;br&gt;10.10.3.0/24" style="points=[[0,0],[0.25,0],[0.5,0],[0.75,0],[1,0],[1,0.25],[1,0.5],[1,0.75],[1,1],[0.75,1],[0.5,1],[0.25,1],[0,1],[0,0.75],[0,0.5],[0,0.25]];outlineConnect=0;gradientColor=none;html=1;whiteSpace=wrap;fontSize=12;fontStyle=0;container=1;pointerEvents=0;collapsible=0;recursiveResize=0;shape=mxgraph.aws4.group;grIcon=mxgraph.aws4.group_security_group;grStroke=0;strokeColor=#248814;fillColor=#E9F3E6;verticalAlign=top;align=left;spacingLeft=30;fontColor=#248814;dashed=0;" parent="7KmP2yAa2ebhud8jWFEG-12" vertex="1">
          <mxGeometry x="560" y="90" width="130" height="130" as="geometry" />
        </mxCell>
        <mxCell id="7KmP2yAa2ebhud8jWFEG-24" value="" style="sketch=0;outlineConnect=0;fontColor=#232F3E;gradientColor=none;fillColor=#4D27AA;strokeColor=none;dashed=0;verticalLabelPosition=bottom;verticalAlign=top;align=center;html=1;fontSize=12;fontStyle=0;aspect=fixed;pointerEvents=1;shape=mxgraph.aws4.internet_gateway;" parent="7KmP2yAa2ebhud8jWFEG-12" vertex="1">
          <mxGeometry x="830" y="116" width="48" height="48" as="geometry" />
        </mxCell>
        <mxCell id="7KmP2yAa2ebhud8jWFEG-79" value="" style="endArrow=none;dashed=1;html=1;rounded=0;exitX=0.564;exitY=0.019;exitDx=0;exitDy=0;exitPerimeter=0;" parent="7KmP2yAa2ebhud8jWFEG-12" source="7KmP2yAa2ebhud8jWFEG-63" edge="1">
          <mxGeometry width="50" height="50" relative="1" as="geometry">
            <mxPoint x="70" y="270" as="sourcePoint" />
            <mxPoint x="120" y="220" as="targetPoint" />
          </mxGeometry>
        </mxCell>
        <mxCell id="7KmP2yAa2ebhud8jWFEG-82" value="" style="endArrow=none;dashed=1;html=1;rounded=0;exitX=1;exitY=0.5;exitDx=0;exitDy=0;" parent="7KmP2yAa2ebhud8jWFEG-12" source="7KmP2yAa2ebhud8jWFEG-66" edge="1">
          <mxGeometry width="50" height="50" relative="1" as="geometry">
            <mxPoint x="420" y="520" as="sourcePoint" />
            <mxPoint x="587" y="210" as="targetPoint" />
            <Array as="points">
              <mxPoint x="590" y="560" />
            </Array>
          </mxGeometry>
        </mxCell>
        <mxCell id="H4JXcXMGbpiKDnDhRID7-1" value="Private subnet&lt;br&gt;10.10.4.0/24" style="points=[[0,0],[0.25,0],[0.5,0],[0.75,0],[1,0],[1,0.25],[1,0.5],[1,0.75],[1,1],[0.75,1],[0.5,1],[0.25,1],[0,1],[0,0.75],[0,0.5],[0,0.25]];outlineConnect=0;gradientColor=none;html=1;whiteSpace=wrap;fontSize=12;fontStyle=0;container=1;pointerEvents=0;collapsible=0;recursiveResize=0;shape=mxgraph.aws4.group;grIcon=mxgraph.aws4.group_security_group;grStroke=0;strokeColor=#147EBA;fillColor=#E6F2F8;verticalAlign=top;align=left;spacingLeft=30;fontColor=#147EBA;dashed=0;" parent="7KmP2yAa2ebhud8jWFEG-12" vertex="1">
          <mxGeometry x="330" y="250" width="160" height="130" as="geometry" />
        </mxCell>
        <mxCell id="H4JXcXMGbpiKDnDhRID7-2" value="EC2" style="points=[[0,0],[0.25,0],[0.5,0],[0.75,0],[1,0],[1,0.25],[1,0.5],[1,0.75],[1,1],[0.75,1],[0.5,1],[0.25,1],[0,1],[0,0.75],[0,0.5],[0,0.25]];outlineConnect=0;gradientColor=none;html=1;whiteSpace=wrap;fontSize=12;fontStyle=0;container=1;pointerEvents=0;collapsible=0;recursiveResize=0;shape=mxgraph.aws4.group;grIcon=mxgraph.aws4.group_ec2_instance_contents;strokeColor=#D86613;fillColor=none;verticalAlign=top;align=left;spacingLeft=30;fontColor=#D86613;dashed=0;" parent="H4JXcXMGbpiKDnDhRID7-1" vertex="1">
          <mxGeometry x="10" y="40" width="60" height="60" as="geometry" />
        </mxCell>
        <mxCell id="H4JXcXMGbpiKDnDhRID7-14" value="" style="endArrow=none;dashed=1;html=1;rounded=0;exitX=0.564;exitY=0.019;exitDx=0;exitDy=0;exitPerimeter=0;" parent="7KmP2yAa2ebhud8jWFEG-12" edge="1">
          <mxGeometry width="50" height="50" relative="1" as="geometry">
            <mxPoint x="397" y="601" as="sourcePoint" />
            <mxPoint x="397" y="370" as="targetPoint" />
          </mxGeometry>
        </mxCell>
        <mxCell id="H4JXcXMGbpiKDnDhRID7-15" value="" style="sketch=0;outlineConnect=0;fontColor=#232F3E;gradientColor=none;fillColor=#4D27AA;strokeColor=none;dashed=0;verticalLabelPosition=bottom;verticalAlign=top;align=center;html=1;fontSize=12;fontStyle=0;aspect=fixed;pointerEvents=1;shape=mxgraph.aws4.nat_gateway;" parent="7KmP2yAa2ebhud8jWFEG-12" vertex="1">
          <mxGeometry x="410" y="150" width="38" height="38" as="geometry" />
        </mxCell>
        <mxCell id="H4JXcXMGbpiKDnDhRID7-16" value="" style="sketch=0;outlineConnect=0;fontColor=#232F3E;gradientColor=none;fillColor=#4D27AA;strokeColor=none;dashed=0;verticalLabelPosition=bottom;verticalAlign=top;align=center;html=1;fontSize=12;fontStyle=0;aspect=fixed;pointerEvents=1;shape=mxgraph.aws4.elastic_network_interface;" parent="7KmP2yAa2ebhud8jWFEG-12" vertex="1">
          <mxGeometry x="410" y="320" width="28" height="28" as="geometry" />
        </mxCell>
        <mxCell id="7KmP2yAa2ebhud8jWFEG-62" value="" style="shape=table;html=1;whiteSpace=wrap;startSize=0;container=1;collapsible=0;childLayout=tableLayout;strokeWidth=2;" parent="7KmP2yAa2ebhud8jWFEG-11" vertex="1">
          <mxGeometry x="40" y="520" width="220" height="214" as="geometry" />
        </mxCell>
        <mxCell id="7KmP2yAa2ebhud8jWFEG-63" value="" style="shape=tableRow;horizontal=0;startSize=0;swimlaneHead=0;swimlaneBody=0;top=0;left=0;bottom=0;right=0;collapsible=0;dropTarget=0;fillColor=none;points=[[0,0.5],[1,0.5]];portConstraint=eastwest;" parent="7KmP2yAa2ebhud8jWFEG-62" vertex="1">
          <mxGeometry width="220" height="54" as="geometry" />
        </mxCell>
        <mxCell id="7KmP2yAa2ebhud8jWFEG-64" value="Destination" style="shape=partialRectangle;html=1;whiteSpace=wrap;connectable=0;fillColor=none;top=0;left=0;bottom=0;right=0;overflow=hidden;fontStyle=1" parent="7KmP2yAa2ebhud8jWFEG-63" vertex="1">
          <mxGeometry width="110" height="54" as="geometry">
            <mxRectangle width="110" height="54" as="alternateBounds" />
          </mxGeometry>
        </mxCell>
        <mxCell id="7KmP2yAa2ebhud8jWFEG-65" value="Target" style="shape=partialRectangle;html=1;whiteSpace=wrap;connectable=0;fillColor=none;top=0;left=0;bottom=0;right=0;overflow=hidden;fontStyle=1" parent="7KmP2yAa2ebhud8jWFEG-63" vertex="1">
          <mxGeometry x="110" width="110" height="54" as="geometry">
            <mxRectangle width="110" height="54" as="alternateBounds" />
          </mxGeometry>
        </mxCell>
        <mxCell id="7KmP2yAa2ebhud8jWFEG-66" value="" style="shape=tableRow;horizontal=0;startSize=0;swimlaneHead=0;swimlaneBody=0;top=0;left=0;bottom=0;right=0;collapsible=0;dropTarget=0;fillColor=none;points=[[0,0.5],[1,0.5]];portConstraint=eastwest;" parent="7KmP2yAa2ebhud8jWFEG-62" vertex="1">
          <mxGeometry y="54" width="220" height="52" as="geometry" />
        </mxCell>
        <mxCell id="7KmP2yAa2ebhud8jWFEG-67" value="10.10.0.0/16" style="shape=partialRectangle;html=1;whiteSpace=wrap;connectable=0;fillColor=none;top=0;left=0;bottom=0;right=0;overflow=hidden;" parent="7KmP2yAa2ebhud8jWFEG-66" vertex="1">
          <mxGeometry width="110" height="52" as="geometry">
            <mxRectangle width="110" height="52" as="alternateBounds" />
          </mxGeometry>
        </mxCell>
        <mxCell id="7KmP2yAa2ebhud8jWFEG-68" value="local" style="shape=partialRectangle;html=1;whiteSpace=wrap;connectable=0;fillColor=none;top=0;left=0;bottom=0;right=0;overflow=hidden;" parent="7KmP2yAa2ebhud8jWFEG-66" vertex="1">
          <mxGeometry x="110" width="110" height="52" as="geometry">
            <mxRectangle width="110" height="52" as="alternateBounds" />
          </mxGeometry>
        </mxCell>
        <mxCell id="7KmP2yAa2ebhud8jWFEG-69" value="" style="shape=tableRow;horizontal=0;startSize=0;swimlaneHead=0;swimlaneBody=0;top=0;left=0;bottom=0;right=0;collapsible=0;dropTarget=0;fillColor=none;points=[[0,0.5],[1,0.5]];portConstraint=eastwest;" parent="7KmP2yAa2ebhud8jWFEG-62" vertex="1">
          <mxGeometry y="106" width="220" height="54" as="geometry" />
        </mxCell>
        <mxCell id="7KmP2yAa2ebhud8jWFEG-70" value="0.0.0.0/0" style="shape=partialRectangle;html=1;whiteSpace=wrap;connectable=0;fillColor=none;top=0;left=0;bottom=0;right=0;overflow=hidden;" parent="7KmP2yAa2ebhud8jWFEG-69" vertex="1">
          <mxGeometry width="110" height="54" as="geometry">
            <mxRectangle width="110" height="54" as="alternateBounds" />
          </mxGeometry>
        </mxCell>
        <mxCell id="7KmP2yAa2ebhud8jWFEG-71" value="igw" style="shape=partialRectangle;html=1;whiteSpace=wrap;connectable=0;fillColor=none;top=0;left=0;bottom=0;right=0;overflow=hidden;" parent="7KmP2yAa2ebhud8jWFEG-69" vertex="1">
          <mxGeometry x="110" width="110" height="54" as="geometry">
            <mxRectangle width="110" height="54" as="alternateBounds" />
          </mxGeometry>
        </mxCell>
        <mxCell id="LtCZgvEexDDgWIcDsuPX-35" style="shape=tableRow;horizontal=0;startSize=0;swimlaneHead=0;swimlaneBody=0;top=0;left=0;bottom=0;right=0;collapsible=0;dropTarget=0;fillColor=none;points=[[0,0.5],[1,0.5]];portConstraint=eastwest;" vertex="1" parent="7KmP2yAa2ebhud8jWFEG-62">
          <mxGeometry y="160" width="220" height="54" as="geometry" />
        </mxCell>
        <mxCell id="LtCZgvEexDDgWIcDsuPX-36" value="10.11.0.0/16" style="shape=partialRectangle;html=1;whiteSpace=wrap;connectable=0;fillColor=none;top=0;left=0;bottom=0;right=0;overflow=hidden;" vertex="1" parent="LtCZgvEexDDgWIcDsuPX-35">
          <mxGeometry width="110" height="54" as="geometry">
            <mxRectangle width="110" height="54" as="alternateBounds" />
          </mxGeometry>
        </mxCell>
        <mxCell id="LtCZgvEexDDgWIcDsuPX-37" value="vpc_peering" style="shape=partialRectangle;html=1;whiteSpace=wrap;connectable=0;fillColor=none;top=0;left=0;bottom=0;right=0;overflow=hidden;" vertex="1" parent="LtCZgvEexDDgWIcDsuPX-35">
          <mxGeometry x="110" width="110" height="54" as="geometry">
            <mxRectangle width="110" height="54" as="alternateBounds" />
          </mxGeometry>
        </mxCell>
        <mxCell id="H4JXcXMGbpiKDnDhRID7-18" value="" style="endArrow=none;dashed=1;html=1;dashPattern=1 3;strokeWidth=2;rounded=0;" parent="7KmP2yAa2ebhud8jWFEG-11" target="H4JXcXMGbpiKDnDhRID7-17" edge="1">
          <mxGeometry width="50" height="50" relative="1" as="geometry">
            <mxPoint x="920" y="180" as="sourcePoint" />
            <mxPoint x="970" y="130" as="targetPoint" />
          </mxGeometry>
        </mxCell>
        <mxCell id="H4JXcXMGbpiKDnDhRID7-36" value="VPC2 - 10.11.0.0/16" style="points=[[0,0],[0.25,0],[0.5,0],[0.75,0],[1,0],[1,0.25],[1,0.5],[1,0.75],[1,1],[0.75,1],[0.5,1],[0.25,1],[0,1],[0,0.75],[0,0.5],[0,0.25]];outlineConnect=0;gradientColor=none;html=1;whiteSpace=wrap;fontSize=12;fontStyle=0;container=1;pointerEvents=0;collapsible=0;recursiveResize=0;shape=mxgraph.aws4.group;grIcon=mxgraph.aws4.group_vpc;strokeColor=#248814;fillColor=none;verticalAlign=top;align=left;spacingLeft=30;fontColor=#AAB7B8;dashed=0;" parent="7KmP2yAa2ebhud8jWFEG-11" vertex="1">
          <mxGeometry x="70" y="880" width="848" height="280" as="geometry" />
        </mxCell>
        <mxCell id="H4JXcXMGbpiKDnDhRID7-37" value="Availability zone&lt;br style=&quot;border-color: var(--border-color);&quot;&gt;ap-southeast-1b" style="sketch=0;outlineConnect=0;gradientColor=none;html=1;whiteSpace=wrap;fontSize=12;fontStyle=0;shape=mxgraph.aws4.group;grIcon=mxgraph.aws4.group_availability_zone;strokeColor=#545B64;fillColor=none;verticalAlign=top;align=left;spacingLeft=30;fontColor=#545B64;dashed=1;" parent="H4JXcXMGbpiKDnDhRID7-36" vertex="1">
          <mxGeometry x="25" y="40" width="435" height="190" as="geometry" />
        </mxCell>
        <mxCell id="H4JXcXMGbpiKDnDhRID7-38" value="Private subnet&lt;br&gt;10.11.1.0/24" style="points=[[0,0],[0.25,0],[0.5,0],[0.75,0],[1,0],[1,0.25],[1,0.5],[1,0.75],[1,1],[0.75,1],[0.5,1],[0.25,1],[0,1],[0,0.75],[0,0.5],[0,0.25]];outlineConnect=0;gradientColor=none;html=1;whiteSpace=wrap;fontSize=12;fontStyle=0;container=1;pointerEvents=0;collapsible=0;recursiveResize=0;shape=mxgraph.aws4.group;grIcon=mxgraph.aws4.group_security_group;grStroke=0;strokeColor=#147EBA;fillColor=#E6F2F8;verticalAlign=top;align=left;spacingLeft=30;fontColor=#147EBA;dashed=0;" parent="H4JXcXMGbpiKDnDhRID7-36" vertex="1">
          <mxGeometry x="250" y="81.5" width="140" height="135" as="geometry" />
        </mxCell>
        <mxCell id="H4JXcXMGbpiKDnDhRID7-39" value="EC2" style="points=[[0,0],[0.25,0],[0.5,0],[0.75,0],[1,0],[1,0.25],[1,0.5],[1,0.75],[1,1],[0.75,1],[0.5,1],[0.25,1],[0,1],[0,0.75],[0,0.5],[0,0.25]];outlineConnect=0;gradientColor=none;html=1;whiteSpace=wrap;fontSize=12;fontStyle=0;container=1;pointerEvents=0;collapsible=0;recursiveResize=0;shape=mxgraph.aws4.group;grIcon=mxgraph.aws4.group_ec2_instance_contents;strokeColor=#D86613;fillColor=none;verticalAlign=top;align=left;spacingLeft=30;fontColor=#D86613;dashed=0;" parent="H4JXcXMGbpiKDnDhRID7-38" vertex="1">
          <mxGeometry x="10" y="54.5" width="90" height="70" as="geometry" />
        </mxCell>
        <mxCell id="LtCZgvEexDDgWIcDsuPX-34" value="" style="endArrow=none;dashed=1;html=1;rounded=0;exitX=0.408;exitY=-0.051;exitDx=0;exitDy=0;exitPerimeter=0;" edge="1" parent="H4JXcXMGbpiKDnDhRID7-36">
          <mxGeometry width="50" height="50" relative="1" as="geometry">
            <mxPoint x="120.00000000000023" y="352.2460000000001" as="sourcePoint" />
            <mxPoint x="120.24000000000001" y="215" as="targetPoint" />
          </mxGeometry>
        </mxCell>
        <mxCell id="LtCZgvEexDDgWIcDsuPX-43" value="Public subnet&lt;br&gt;10.11.2.0/24" style="points=[[0,0],[0.25,0],[0.5,0],[0.75,0],[1,0],[1,0.25],[1,0.5],[1,0.75],[1,1],[0.75,1],[0.5,1],[0.25,1],[0,1],[0,0.75],[0,0.5],[0,0.25]];outlineConnect=0;gradientColor=none;html=1;whiteSpace=wrap;fontSize=12;fontStyle=0;container=1;pointerEvents=0;collapsible=0;recursiveResize=0;shape=mxgraph.aws4.group;grIcon=mxgraph.aws4.group_security_group;grStroke=0;strokeColor=#7AA116;fillColor=#F2F6E8;verticalAlign=top;align=left;spacingLeft=30;fontColor=#248814;dashed=0;" vertex="1" parent="H4JXcXMGbpiKDnDhRID7-36">
          <mxGeometry x="50" y="85" width="130" height="130" as="geometry" />
        </mxCell>
        <mxCell id="LtCZgvEexDDgWIcDsuPX-45" value="" style="sketch=0;outlineConnect=0;fontColor=#232F3E;gradientColor=none;fillColor=#4D27AA;strokeColor=none;dashed=0;verticalLabelPosition=bottom;verticalAlign=top;align=center;html=1;fontSize=12;fontStyle=0;aspect=fixed;pointerEvents=1;shape=mxgraph.aws4.nat_gateway;" vertex="1" parent="LtCZgvEexDDgWIcDsuPX-43">
          <mxGeometry x="72" y="46" width="38" height="38" as="geometry" />
        </mxCell>
        <mxCell id="LtCZgvEexDDgWIcDsuPX-44" value="" style="sketch=0;outlineConnect=0;fontColor=#232F3E;gradientColor=none;fillColor=#4D27AA;strokeColor=none;dashed=0;verticalLabelPosition=bottom;verticalAlign=top;align=center;html=1;fontSize=12;fontStyle=0;aspect=fixed;pointerEvents=1;shape=mxgraph.aws4.elastic_network_interface;" vertex="1" parent="H4JXcXMGbpiKDnDhRID7-36">
          <mxGeometry x="287" y="160" width="28" height="28" as="geometry" />
        </mxCell>
        <mxCell id="LtCZgvEexDDgWIcDsuPX-65" value="" style="sketch=0;outlineConnect=0;fontColor=#232F3E;gradientColor=none;fillColor=#4D27AA;strokeColor=none;dashed=0;verticalLabelPosition=bottom;verticalAlign=top;align=center;html=1;fontSize=12;fontStyle=0;aspect=fixed;pointerEvents=1;shape=mxgraph.aws4.internet_gateway;" vertex="1" parent="H4JXcXMGbpiKDnDhRID7-36">
          <mxGeometry x="830" y="100" width="48" height="48" as="geometry" />
        </mxCell>
        <mxCell id="LtCZgvEexDDgWIcDsuPX-1" value="" style="outlineConnect=0;dashed=0;verticalLabelPosition=bottom;verticalAlign=top;align=center;html=1;shape=mxgraph.aws3.vpc_peering;fillColor=#F58534;gradientColor=none;" vertex="1" parent="7KmP2yAa2ebhud8jWFEG-11">
          <mxGeometry x="260" y="760" width="69" height="72" as="geometry" />
        </mxCell>
        <mxCell id="LtCZgvEexDDgWIcDsuPX-4" value="" style="endArrow=classic;startArrow=classic;html=1;rounded=0;exitX=0.58;exitY=0.139;exitDx=0;exitDy=0;exitPerimeter=0;" edge="1" parent="7KmP2yAa2ebhud8jWFEG-11">
          <mxGeometry width="50" height="50" relative="1" as="geometry">
            <mxPoint x="294.02" y="770.0079999999998" as="sourcePoint" />
            <mxPoint x="294" y="570" as="targetPoint" />
          </mxGeometry>
        </mxCell>
        <mxCell id="LtCZgvEexDDgWIcDsuPX-7" value="rtb_private_vpc1" style="text;html=1;align=center;verticalAlign=middle;resizable=0;points=[];autosize=1;strokeColor=none;fillColor=none;" vertex="1" parent="7KmP2yAa2ebhud8jWFEG-11">
          <mxGeometry x="440" y="600" width="110" height="30" as="geometry" />
        </mxCell>
        <mxCell id="LtCZgvEexDDgWIcDsuPX-18" value="rtb_private_vpc2" style="text;html=1;align=center;verticalAlign=middle;resizable=0;points=[];autosize=1;strokeColor=none;fillColor=none;" vertex="1" parent="7KmP2yAa2ebhud8jWFEG-11">
          <mxGeometry x="420" y="1180" width="110" height="30" as="geometry" />
        </mxCell>
        <mxCell id="H4JXcXMGbpiKDnDhRID7-17" value="" style="sketch=0;outlineConnect=0;fontColor=#232F3E;gradientColor=none;fillColor=#232F3D;strokeColor=none;dashed=0;verticalLabelPosition=bottom;verticalAlign=top;align=center;html=1;fontSize=12;fontStyle=0;aspect=fixed;pointerEvents=1;shape=mxgraph.aws4.internet_alt2;" parent="7KmP2yAa2ebhud8jWFEG-11" vertex="1">
          <mxGeometry x="970" y="120" width="118" height="118" as="geometry" />
        </mxCell>
        <mxCell id="LtCZgvEexDDgWIcDsuPX-41" value="Back Route" style="text;html=1;strokeColor=none;fillColor=none;align=center;verticalAlign=middle;whiteSpace=wrap;rounded=0;" vertex="1" parent="7KmP2yAa2ebhud8jWFEG-11">
          <mxGeometry x="570" y="802" width="130" height="30" as="geometry" />
        </mxCell>
        <mxCell id="LtCZgvEexDDgWIcDsuPX-49" value="" style="shape=table;html=1;whiteSpace=wrap;startSize=0;container=1;collapsible=0;childLayout=tableLayout;strokeWidth=2;" vertex="1" parent="7KmP2yAa2ebhud8jWFEG-11">
          <mxGeometry x="90" y="1220" width="220" height="160" as="geometry" />
        </mxCell>
        <mxCell id="LtCZgvEexDDgWIcDsuPX-50" value="" style="shape=tableRow;horizontal=0;startSize=0;swimlaneHead=0;swimlaneBody=0;top=0;left=0;bottom=0;right=0;collapsible=0;dropTarget=0;fillColor=none;points=[[0,0.5],[1,0.5]];portConstraint=eastwest;" vertex="1" parent="LtCZgvEexDDgWIcDsuPX-49">
          <mxGeometry width="220" height="54" as="geometry" />
        </mxCell>
        <mxCell id="LtCZgvEexDDgWIcDsuPX-51" value="Destination" style="shape=partialRectangle;html=1;whiteSpace=wrap;connectable=0;fillColor=none;top=0;left=0;bottom=0;right=0;overflow=hidden;fontStyle=1" vertex="1" parent="LtCZgvEexDDgWIcDsuPX-50">
          <mxGeometry width="110" height="54" as="geometry">
            <mxRectangle width="110" height="54" as="alternateBounds" />
          </mxGeometry>
        </mxCell>
        <mxCell id="LtCZgvEexDDgWIcDsuPX-52" value="Target" style="shape=partialRectangle;html=1;whiteSpace=wrap;connectable=0;fillColor=none;top=0;left=0;bottom=0;right=0;overflow=hidden;fontStyle=1" vertex="1" parent="LtCZgvEexDDgWIcDsuPX-50">
          <mxGeometry x="110" width="110" height="54" as="geometry">
            <mxRectangle width="110" height="54" as="alternateBounds" />
          </mxGeometry>
        </mxCell>
        <mxCell id="LtCZgvEexDDgWIcDsuPX-53" value="" style="shape=tableRow;horizontal=0;startSize=0;swimlaneHead=0;swimlaneBody=0;top=0;left=0;bottom=0;right=0;collapsible=0;dropTarget=0;fillColor=none;points=[[0,0.5],[1,0.5]];portConstraint=eastwest;" vertex="1" parent="LtCZgvEexDDgWIcDsuPX-49">
          <mxGeometry y="54" width="220" height="52" as="geometry" />
        </mxCell>
        <mxCell id="LtCZgvEexDDgWIcDsuPX-54" value="10.11.0.0/16" style="shape=partialRectangle;html=1;whiteSpace=wrap;connectable=0;fillColor=none;top=0;left=0;bottom=0;right=0;overflow=hidden;" vertex="1" parent="LtCZgvEexDDgWIcDsuPX-53">
          <mxGeometry width="110" height="52" as="geometry">
            <mxRectangle width="110" height="52" as="alternateBounds" />
          </mxGeometry>
        </mxCell>
        <mxCell id="LtCZgvEexDDgWIcDsuPX-55" value="local" style="shape=partialRectangle;html=1;whiteSpace=wrap;connectable=0;fillColor=none;top=0;left=0;bottom=0;right=0;overflow=hidden;" vertex="1" parent="LtCZgvEexDDgWIcDsuPX-53">
          <mxGeometry x="110" width="110" height="52" as="geometry">
            <mxRectangle width="110" height="52" as="alternateBounds" />
          </mxGeometry>
        </mxCell>
        <mxCell id="LtCZgvEexDDgWIcDsuPX-56" value="" style="shape=tableRow;horizontal=0;startSize=0;swimlaneHead=0;swimlaneBody=0;top=0;left=0;bottom=0;right=0;collapsible=0;dropTarget=0;fillColor=none;points=[[0,0.5],[1,0.5]];portConstraint=eastwest;" vertex="1" parent="LtCZgvEexDDgWIcDsuPX-49">
          <mxGeometry y="106" width="220" height="54" as="geometry" />
        </mxCell>
        <mxCell id="LtCZgvEexDDgWIcDsuPX-57" value="0.0.0.0/0" style="shape=partialRectangle;html=1;whiteSpace=wrap;connectable=0;fillColor=none;top=0;left=0;bottom=0;right=0;overflow=hidden;" vertex="1" parent="LtCZgvEexDDgWIcDsuPX-56">
          <mxGeometry width="110" height="54" as="geometry">
            <mxRectangle width="110" height="54" as="alternateBounds" />
          </mxGeometry>
        </mxCell>
        <mxCell id="LtCZgvEexDDgWIcDsuPX-58" value="igw" style="shape=partialRectangle;html=1;whiteSpace=wrap;connectable=0;fillColor=none;top=0;left=0;bottom=0;right=0;overflow=hidden;" vertex="1" parent="LtCZgvEexDDgWIcDsuPX-56">
          <mxGeometry x="110" width="110" height="54" as="geometry">
            <mxRectangle width="110" height="54" as="alternateBounds" />
          </mxGeometry>
        </mxCell>
        <mxCell id="LtCZgvEexDDgWIcDsuPX-64" value="rtb_public_vpc2" style="text;html=1;align=center;verticalAlign=middle;resizable=0;points=[];autosize=1;strokeColor=none;fillColor=none;" vertex="1" parent="7KmP2yAa2ebhud8jWFEG-11">
          <mxGeometry x="80" y="1190" width="110" height="30" as="geometry" />
        </mxCell>
        <mxCell id="LtCZgvEexDDgWIcDsuPX-5" value="" style="endArrow=classic;startArrow=classic;html=1;rounded=0;" edge="1" parent="7KmP2yAa2ebhud8jWFEG-11">
          <mxGeometry width="50" height="50" relative="1" as="geometry">
            <mxPoint x="294" y="880" as="sourcePoint" />
            <mxPoint x="294" y="832" as="targetPoint" />
          </mxGeometry>
        </mxCell>
        <mxCell id="LtCZgvEexDDgWIcDsuPX-66" value="" style="endArrow=none;dashed=1;html=1;dashPattern=1 3;strokeWidth=2;rounded=0;" edge="1" parent="7KmP2yAa2ebhud8jWFEG-11" source="H4JXcXMGbpiKDnDhRID7-17" target="LtCZgvEexDDgWIcDsuPX-65">
          <mxGeometry width="50" height="50" relative="1" as="geometry">
            <mxPoint x="1088" y="629.998656716418" as="sourcePoint" />
            <mxPoint x="951.2757209850961" y="799.3735098244333" as="targetPoint" />
            <Array as="points">
              <mxPoint x="1040" y="1000" />
            </Array>
          </mxGeometry>
        </mxCell>
        <mxCell id="H4JXcXMGbpiKDnDhRID7-3" value="" style="shape=table;html=1;whiteSpace=wrap;startSize=0;container=1;collapsible=0;childLayout=tableLayout;strokeWidth=2;" parent="1" vertex="1">
          <mxGeometry x="390" y="-1090" width="220" height="214" as="geometry" />
        </mxCell>
        <mxCell id="H4JXcXMGbpiKDnDhRID7-4" value="" style="shape=tableRow;horizontal=0;startSize=0;swimlaneHead=0;swimlaneBody=0;top=0;left=0;bottom=0;right=0;collapsible=0;dropTarget=0;fillColor=none;points=[[0,0.5],[1,0.5]];portConstraint=eastwest;" parent="H4JXcXMGbpiKDnDhRID7-3" vertex="1">
          <mxGeometry width="220" height="54" as="geometry" />
        </mxCell>
        <mxCell id="H4JXcXMGbpiKDnDhRID7-5" value="Destination" style="shape=partialRectangle;html=1;whiteSpace=wrap;connectable=0;fillColor=none;top=0;left=0;bottom=0;right=0;overflow=hidden;fontStyle=1" parent="H4JXcXMGbpiKDnDhRID7-4" vertex="1">
          <mxGeometry width="110" height="54" as="geometry">
            <mxRectangle width="110" height="54" as="alternateBounds" />
          </mxGeometry>
        </mxCell>
        <mxCell id="H4JXcXMGbpiKDnDhRID7-6" value="Target" style="shape=partialRectangle;html=1;whiteSpace=wrap;connectable=0;fillColor=none;top=0;left=0;bottom=0;right=0;overflow=hidden;fontStyle=1" parent="H4JXcXMGbpiKDnDhRID7-4" vertex="1">
          <mxGeometry x="110" width="110" height="54" as="geometry">
            <mxRectangle width="110" height="54" as="alternateBounds" />
          </mxGeometry>
        </mxCell>
        <mxCell id="H4JXcXMGbpiKDnDhRID7-7" value="" style="shape=tableRow;horizontal=0;startSize=0;swimlaneHead=0;swimlaneBody=0;top=0;left=0;bottom=0;right=0;collapsible=0;dropTarget=0;fillColor=none;points=[[0,0.5],[1,0.5]];portConstraint=eastwest;" parent="H4JXcXMGbpiKDnDhRID7-3" vertex="1">
          <mxGeometry y="54" width="220" height="52" as="geometry" />
        </mxCell>
        <mxCell id="H4JXcXMGbpiKDnDhRID7-8" value="10.10.0.0/16" style="shape=partialRectangle;html=1;whiteSpace=wrap;connectable=0;fillColor=none;top=0;left=0;bottom=0;right=0;overflow=hidden;" parent="H4JXcXMGbpiKDnDhRID7-7" vertex="1">
          <mxGeometry width="110" height="52" as="geometry">
            <mxRectangle width="110" height="52" as="alternateBounds" />
          </mxGeometry>
        </mxCell>
        <mxCell id="H4JXcXMGbpiKDnDhRID7-9" value="local" style="shape=partialRectangle;html=1;whiteSpace=wrap;connectable=0;fillColor=none;top=0;left=0;bottom=0;right=0;overflow=hidden;" parent="H4JXcXMGbpiKDnDhRID7-7" vertex="1">
          <mxGeometry x="110" width="110" height="52" as="geometry">
            <mxRectangle width="110" height="52" as="alternateBounds" />
          </mxGeometry>
        </mxCell>
        <mxCell id="H4JXcXMGbpiKDnDhRID7-10" value="" style="shape=tableRow;horizontal=0;startSize=0;swimlaneHead=0;swimlaneBody=0;top=0;left=0;bottom=0;right=0;collapsible=0;dropTarget=0;fillColor=none;points=[[0,0.5],[1,0.5]];portConstraint=eastwest;" parent="H4JXcXMGbpiKDnDhRID7-3" vertex="1">
          <mxGeometry y="106" width="220" height="54" as="geometry" />
        </mxCell>
        <mxCell id="H4JXcXMGbpiKDnDhRID7-11" value="0.0.0.0/0" style="shape=partialRectangle;html=1;whiteSpace=wrap;connectable=0;fillColor=none;top=0;left=0;bottom=0;right=0;overflow=hidden;" parent="H4JXcXMGbpiKDnDhRID7-10" vertex="1">
          <mxGeometry width="110" height="54" as="geometry">
            <mxRectangle width="110" height="54" as="alternateBounds" />
          </mxGeometry>
        </mxCell>
        <mxCell id="H4JXcXMGbpiKDnDhRID7-12" value="natgw" style="shape=partialRectangle;html=1;whiteSpace=wrap;connectable=0;fillColor=none;top=0;left=0;bottom=0;right=0;overflow=hidden;" parent="H4JXcXMGbpiKDnDhRID7-10" vertex="1">
          <mxGeometry x="110" width="110" height="54" as="geometry">
            <mxRectangle width="110" height="54" as="alternateBounds" />
          </mxGeometry>
        </mxCell>
        <mxCell id="LtCZgvEexDDgWIcDsuPX-31" style="shape=tableRow;horizontal=0;startSize=0;swimlaneHead=0;swimlaneBody=0;top=0;left=0;bottom=0;right=0;collapsible=0;dropTarget=0;fillColor=none;points=[[0,0.5],[1,0.5]];portConstraint=eastwest;" vertex="1" parent="H4JXcXMGbpiKDnDhRID7-3">
          <mxGeometry y="160" width="220" height="54" as="geometry" />
        </mxCell>
        <mxCell id="LtCZgvEexDDgWIcDsuPX-32" value="10.11.0.0/16" style="shape=partialRectangle;html=1;whiteSpace=wrap;connectable=0;fillColor=none;top=0;left=0;bottom=0;right=0;overflow=hidden;" vertex="1" parent="LtCZgvEexDDgWIcDsuPX-31">
          <mxGeometry width="110" height="54" as="geometry">
            <mxRectangle width="110" height="54" as="alternateBounds" />
          </mxGeometry>
        </mxCell>
        <mxCell id="LtCZgvEexDDgWIcDsuPX-33" value="vpc_peering" style="shape=partialRectangle;html=1;whiteSpace=wrap;connectable=0;fillColor=none;top=0;left=0;bottom=0;right=0;overflow=hidden;" vertex="1" parent="LtCZgvEexDDgWIcDsuPX-31">
          <mxGeometry x="110" width="110" height="54" as="geometry">
            <mxRectangle width="110" height="54" as="alternateBounds" />
          </mxGeometry>
        </mxCell>
        <mxCell id="LtCZgvEexDDgWIcDsuPX-6" value="rtb_public_vpc1" style="text;html=1;align=center;verticalAlign=middle;resizable=0;points=[];autosize=1;strokeColor=none;fillColor=none;" vertex="1" parent="1">
          <mxGeometry x="105" y="-1232" width="110" height="30" as="geometry" />
        </mxCell>
        <mxCell id="LtCZgvEexDDgWIcDsuPX-8" value="" style="shape=table;html=1;whiteSpace=wrap;startSize=0;container=1;collapsible=0;childLayout=tableLayout;strokeWidth=2;" vertex="1" parent="1">
          <mxGeometry x="400" y="-500" width="220" height="214" as="geometry" />
        </mxCell>
        <mxCell id="LtCZgvEexDDgWIcDsuPX-9" value="" style="shape=tableRow;horizontal=0;startSize=0;swimlaneHead=0;swimlaneBody=0;top=0;left=0;bottom=0;right=0;collapsible=0;dropTarget=0;fillColor=none;points=[[0,0.5],[1,0.5]];portConstraint=eastwest;" vertex="1" parent="LtCZgvEexDDgWIcDsuPX-8">
          <mxGeometry width="220" height="54" as="geometry" />
        </mxCell>
        <mxCell id="LtCZgvEexDDgWIcDsuPX-10" value="Destination" style="shape=partialRectangle;html=1;whiteSpace=wrap;connectable=0;fillColor=none;top=0;left=0;bottom=0;right=0;overflow=hidden;fontStyle=1" vertex="1" parent="LtCZgvEexDDgWIcDsuPX-9">
          <mxGeometry width="110" height="54" as="geometry">
            <mxRectangle width="110" height="54" as="alternateBounds" />
          </mxGeometry>
        </mxCell>
        <mxCell id="LtCZgvEexDDgWIcDsuPX-11" value="Target" style="shape=partialRectangle;html=1;whiteSpace=wrap;connectable=0;fillColor=none;top=0;left=0;bottom=0;right=0;overflow=hidden;fontStyle=1" vertex="1" parent="LtCZgvEexDDgWIcDsuPX-9">
          <mxGeometry x="110" width="110" height="54" as="geometry">
            <mxRectangle width="110" height="54" as="alternateBounds" />
          </mxGeometry>
        </mxCell>
        <mxCell id="LtCZgvEexDDgWIcDsuPX-12" value="" style="shape=tableRow;horizontal=0;startSize=0;swimlaneHead=0;swimlaneBody=0;top=0;left=0;bottom=0;right=0;collapsible=0;dropTarget=0;fillColor=none;points=[[0,0.5],[1,0.5]];portConstraint=eastwest;" vertex="1" parent="LtCZgvEexDDgWIcDsuPX-8">
          <mxGeometry y="54" width="220" height="52" as="geometry" />
        </mxCell>
        <mxCell id="LtCZgvEexDDgWIcDsuPX-13" value="10.11.0.0/16" style="shape=partialRectangle;html=1;whiteSpace=wrap;connectable=0;fillColor=none;top=0;left=0;bottom=0;right=0;overflow=hidden;" vertex="1" parent="LtCZgvEexDDgWIcDsuPX-12">
          <mxGeometry width="110" height="52" as="geometry">
            <mxRectangle width="110" height="52" as="alternateBounds" />
          </mxGeometry>
        </mxCell>
        <mxCell id="LtCZgvEexDDgWIcDsuPX-14" value="local" style="shape=partialRectangle;html=1;whiteSpace=wrap;connectable=0;fillColor=none;top=0;left=0;bottom=0;right=0;overflow=hidden;" vertex="1" parent="LtCZgvEexDDgWIcDsuPX-12">
          <mxGeometry x="110" width="110" height="52" as="geometry">
            <mxRectangle width="110" height="52" as="alternateBounds" />
          </mxGeometry>
        </mxCell>
        <mxCell id="LtCZgvEexDDgWIcDsuPX-15" value="" style="shape=tableRow;horizontal=0;startSize=0;swimlaneHead=0;swimlaneBody=0;top=0;left=0;bottom=0;right=0;collapsible=0;dropTarget=0;fillColor=none;points=[[0,0.5],[1,0.5]];portConstraint=eastwest;" vertex="1" parent="LtCZgvEexDDgWIcDsuPX-8">
          <mxGeometry y="106" width="220" height="54" as="geometry" />
        </mxCell>
        <mxCell id="LtCZgvEexDDgWIcDsuPX-16" value="10.10.0.0/16" style="shape=partialRectangle;html=1;whiteSpace=wrap;connectable=0;fillColor=none;top=0;left=0;bottom=0;right=0;overflow=hidden;" vertex="1" parent="LtCZgvEexDDgWIcDsuPX-15">
          <mxGeometry width="110" height="54" as="geometry">
            <mxRectangle width="110" height="54" as="alternateBounds" />
          </mxGeometry>
        </mxCell>
        <mxCell id="LtCZgvEexDDgWIcDsuPX-17" value="vpc_peering" style="shape=partialRectangle;html=1;whiteSpace=wrap;connectable=0;fillColor=none;top=0;left=0;bottom=0;right=0;overflow=hidden;" vertex="1" parent="LtCZgvEexDDgWIcDsuPX-15">
          <mxGeometry x="110" width="110" height="54" as="geometry">
            <mxRectangle width="110" height="54" as="alternateBounds" />
          </mxGeometry>
        </mxCell>
        <mxCell id="LtCZgvEexDDgWIcDsuPX-46" style="shape=tableRow;horizontal=0;startSize=0;swimlaneHead=0;swimlaneBody=0;top=0;left=0;bottom=0;right=0;collapsible=0;dropTarget=0;fillColor=none;points=[[0,0.5],[1,0.5]];portConstraint=eastwest;" vertex="1" parent="LtCZgvEexDDgWIcDsuPX-8">
          <mxGeometry y="160" width="220" height="54" as="geometry" />
        </mxCell>
        <mxCell id="LtCZgvEexDDgWIcDsuPX-47" value="0.0.0.0/0" style="shape=partialRectangle;html=1;whiteSpace=wrap;connectable=0;fillColor=none;top=0;left=0;bottom=0;right=0;overflow=hidden;" vertex="1" parent="LtCZgvEexDDgWIcDsuPX-46">
          <mxGeometry width="110" height="54" as="geometry">
            <mxRectangle width="110" height="54" as="alternateBounds" />
          </mxGeometry>
        </mxCell>
        <mxCell id="LtCZgvEexDDgWIcDsuPX-48" value="natgw" style="shape=partialRectangle;html=1;whiteSpace=wrap;connectable=0;fillColor=none;top=0;left=0;bottom=0;right=0;overflow=hidden;" vertex="1" parent="LtCZgvEexDDgWIcDsuPX-46">
          <mxGeometry x="110" width="110" height="54" as="geometry">
            <mxRectangle width="110" height="54" as="alternateBounds" />
          </mxGeometry>
        </mxCell>
        <mxCell id="LtCZgvEexDDgWIcDsuPX-42" value="Back Route" style="text;html=1;strokeColor=none;fillColor=none;align=center;verticalAlign=middle;whiteSpace=wrap;rounded=0;" vertex="1" parent="1">
          <mxGeometry x="-50" y="-1030" width="130" height="30" as="geometry" />
        </mxCell>
        <mxCell id="LtCZgvEexDDgWIcDsuPX-63" value="" style="endArrow=none;dashed=1;html=1;rounded=0;exitX=0.408;exitY=-0.051;exitDx=0;exitDy=0;exitPerimeter=0;" edge="1" parent="1">
          <mxGeometry width="50" height="50" relative="1" as="geometry">
            <mxPoint x="460.0000000000002" y="-482.7539999999999" as="sourcePoint" />
            <mxPoint x="460.24" y="-620" as="targetPoint" />
          </mxGeometry>
        </mxCell>
      </root>
    </mxGraphModel>
  </diagram>
</mxfile>
